<?xml version="1.0" encoding="UTF-8"?>
<svg xmlns="http://www.w3.org/2000/svg" xmlns:xlink="http://www.w3.org/1999/xlink" viewBox="0 0 48 48" width="48px" height="48px">
<g id="surface241157898">
<path style=" stroke:none;fill-rule:nonzero;fill:rgb(8.235294%,39.607844%,75.294119%);fill-opacity:1;" d="M 20 23 C 21 23 24 21.382812 24 17.382812 C 24 11.164062 18.492188 10 12.292969 10 C 11.121094 10 7.546875 10.003906 5 10 C 3.34375 10 2 11.34375 2 13 L 2 35 C 2 36.65625 3.34375 38 5 38 L 16.800781 38 C 21.21875 38 24.964844 34.503906 25 30.085938 C 25.046875 24.007812 20 23 20 23 Z M 8 15 L 15 15 C 16.65625 15 18 16.34375 18 18 C 18 19.65625 16.65625 21 15 21 L 8 21 Z M 15.5 33 L 8 33 L 8 26 L 15.5 26 C 17.433594 26 19 27.566406 19 29.5 C 19 31.433594 17.433594 33 15.5 33 Z M 45.511719 29 C 46.339844 29 47.011719 28.328125 47.011719 27.5 C 47.011719 21.699219 43 17 37.011719 17 C 31.488281 17 27.011719 21.699219 27.011719 27.5 C 27.011719 33.300781 31.488281 38 37.011719 38 C 41.898438 38 44.613281 35.714844 45.9375 32.355469 C 46.195312 31.710938 45.691406 31.007812 44.996094 31.007812 L 42.597656 31.007812 C 42.230469 31.007812 41.90625 31.214844 41.71875 31.527344 C 40.804688 33.039062 39.410156 34 37.53125 34 C 34.71875 34 32.671875 31.863281 32.148438 29 Z M 37.011719 21 C 39.089844 21 41.101562 22.65625 41.667969 25 L 32.394531 25 C 33.148438 22.652344 34.929688 21 37.011719 21 Z M 41.5 15 L 33.5 15 C 32.671875 15 32 14.328125 32 13.5 C 32 12.671875 32.671875 12 33.5 12 L 41.5 12 C 42.328125 12 43 12.671875 43 13.5 C 43 14.328125 42.328125 15 41.5 15 Z M 41.5 15 "/>
</g>
</svg>
